<svg width="28" height="28" viewBox="0 0 28 28" fill="none" xmlns="http://www.w3.org/2000/svg">
<path d="M24.5002 18.6666H8.16683C7.85741 18.6666 7.56066 18.5437 7.34187 18.3249C7.12308 18.1061 7.00016 17.8094 7.00016 17.5C7.00016 17.1906 7.12308 16.8938 7.34187 16.675C7.56066 16.4562 7.85741 16.3333 8.16683 16.3333H20.3468C21.1269 16.3334 21.8847 16.0728 22.4998 15.593C23.1148 15.1132 23.552 14.4416 23.7418 13.685L25.6668 6.11331C25.7105 5.94112 25.7143 5.76123 25.6779 5.58735C25.6415 5.41347 25.5659 5.25019 25.4568 5.10998C25.3434 4.96617 25.1976 4.85109 25.0314 4.77407C24.8652 4.69705 24.6832 4.66025 24.5002 4.66665H7.88683C7.64613 3.98584 7.20075 3.39614 6.61174 2.97841C6.02273 2.56067 5.31893 2.33534 4.59683 2.33331H3.50016C3.19074 2.33331 2.894 2.45623 2.6752 2.67502C2.45641 2.89381 2.3335 3.19056 2.3335 3.49998C2.3335 3.8094 2.45641 4.10615 2.6752 4.32494C2.894 4.54373 3.19074 4.66665 3.50016 4.66665H4.59683C4.86334 4.65888 5.12446 4.74263 5.33674 4.90396C5.54901 5.06529 5.69962 5.29446 5.7635 5.55331L5.8335 6.11331L7.85183 14C6.92357 14.0418 6.04993 14.4506 5.42309 15.1365C4.79625 15.8224 4.46756 16.7292 4.50933 17.6575C4.5511 18.5857 4.95991 19.4594 5.64582 20.0862C6.33174 20.7131 7.23857 21.0418 8.16683 21H8.37683C8.18495 21.5286 8.1233 22.0957 8.19708 22.6533C8.27087 23.2108 8.47792 23.7424 8.8007 24.2029C9.12349 24.6634 9.5525 25.0394 10.0514 25.299C10.5503 25.5586 11.1044 25.6941 11.6668 25.6941C12.2292 25.6941 12.7833 25.5586 13.2823 25.299C13.7812 25.0394 14.2102 24.6634 14.533 24.2029C14.8557 23.7424 15.0628 23.2108 15.1366 22.6533C15.2104 22.0957 15.1487 21.5286 14.9568 21H17.7102C17.5183 21.5286 17.4566 22.0957 17.5304 22.6533C17.6042 23.2108 17.8112 23.7424 18.134 24.2029C18.4568 24.6634 18.8858 25.0394 19.3847 25.299C19.8837 25.5586 20.4378 25.6941 21.0002 25.6941C21.5626 25.6941 22.1167 25.5586 22.6156 25.299C23.1145 25.0394 23.5435 24.6634 23.8663 24.2029C24.1891 23.7424 24.3961 23.2108 24.4699 22.6533C24.5437 22.0957 24.482 21.5286 24.2902 21H24.5002C24.8096 21 25.1063 20.8771 25.3251 20.6583C25.5439 20.4395 25.6668 20.1427 25.6668 19.8333C25.6668 19.5239 25.5439 19.2271 25.3251 19.0084C25.1063 18.7896 24.8096 18.6666 24.5002 18.6666ZM23.0068 6.99998L21.4785 13.1133C21.4146 13.3722 21.264 13.6013 21.0517 13.7627C20.8395 13.924 20.5783 14.0077 20.3118 14H10.2435L8.4935 6.99998H23.0068ZM11.6668 23.3333C11.4361 23.3333 11.2105 23.2649 11.0187 23.1367C10.8268 23.0085 10.6773 22.8263 10.589 22.6131C10.5007 22.3999 10.4776 22.1654 10.5226 21.939C10.5676 21.7127 10.6787 21.5048 10.8419 21.3417C11.005 21.1785 11.2129 21.0674 11.4392 21.0224C11.6655 20.9774 11.9001 21.0005 12.1133 21.0888C12.3265 21.1771 12.5087 21.3266 12.6369 21.5185C12.7651 21.7103 12.8335 21.9359 12.8335 22.1666C12.8335 22.4761 12.7106 22.7728 12.4918 22.9916C12.273 23.2104 11.9762 23.3333 11.6668 23.3333ZM21.0002 23.3333C20.7694 23.3333 20.5439 23.2649 20.352 23.1367C20.1601 23.0085 20.0106 22.8263 19.9223 22.6131C19.834 22.3999 19.8109 22.1654 19.8559 21.939C19.9009 21.7127 20.012 21.5048 20.1752 21.3417C20.3384 21.1785 20.5462 21.0674 20.7726 21.0224C20.9989 20.9774 21.2334 21.0005 21.4466 21.0888C21.6598 21.1771 21.842 21.3266 21.9702 21.5185C22.0984 21.7103 22.1668 21.9359 22.1668 22.1666C22.1668 22.4761 22.0439 22.7728 21.8251 22.9916C21.6063 23.2104 21.3096 23.3333 21.0002 23.3333Z" fill="#4B4B4B"/>
</svg>
