<svg width="26" height="26" viewBox="0 0 26 26" fill="none" xmlns="http://www.w3.org/2000/svg">
<path d="M22.3625 2.36914H3.45644C3.14657 2.36914 2.8494 2.49234 2.63029 2.71165C2.41118 2.93095 2.28809 3.22839 2.28809 3.53853V22.4614C2.28809 22.615 2.31831 22.7671 2.37702 22.9089C2.43574 23.0508 2.5218 23.1797 2.63029 23.2883C2.73878 23.3969 2.86758 23.483 3.00933 23.5418C3.15108 23.6006 3.30301 23.6308 3.45644 23.6308H13.6317V15.3919H10.8701V12.2027H13.6317V9.81073C13.5745 9.24916 13.6407 8.68187 13.8258 8.14864C14.0108 7.61541 14.3102 7.12915 14.7028 6.72397C15.0955 6.31879 15.572 6.00451 16.0989 5.80316C16.6257 5.6018 17.1902 5.51826 17.7528 5.55839C18.5795 5.5533 19.4058 5.5959 20.2276 5.68596V8.55629H18.5388C17.2005 8.55629 16.9456 9.19414 16.9456 10.119V12.1708H20.132L19.7177 15.36H16.9456V23.6308H22.3625C22.5159 23.6308 22.6678 23.6006 22.8096 23.5418C22.9513 23.483 23.0801 23.3969 23.1886 23.2883C23.2971 23.1797 23.3832 23.0508 23.4419 22.9089C23.5006 22.7671 23.5308 22.615 23.5308 22.4614V3.53853C23.5308 3.38497 23.5006 3.2329 23.4419 3.09103C23.3832 2.94915 23.2971 2.82024 23.1886 2.71165C23.0801 2.60306 22.9513 2.51692 22.8096 2.45816C22.6678 2.39939 22.5159 2.36914 22.3625 2.36914V2.36914Z" fill="white"/>
</svg>
