<svg width="26" height="26" viewBox="0 0 26 26" fill="none" xmlns="http://www.w3.org/2000/svg">
<path d="M13.0828 10.3635C12.5618 10.3635 12.0525 10.5182 11.6194 10.8079C11.1862 11.0976 10.8486 11.5093 10.6492 11.9911C10.4498 12.4728 10.3977 13.0029 10.4993 13.5143C10.6009 14.0257 10.8518 14.4955 11.2202 14.8642C11.5886 15.2329 12.0579 15.484 12.5689 15.5858C13.0799 15.6875 13.6095 15.6353 14.0908 15.4357C14.5721 15.2362 14.9835 14.8983 15.273 14.4647C15.5624 14.0312 15.7169 13.5214 15.7169 13C15.7169 12.6538 15.6487 12.3109 15.5164 11.9911C15.384 11.6712 15.19 11.3805 14.9454 11.1357C14.7008 10.8909 14.4104 10.6967 14.0908 10.5642C13.7712 10.4317 13.4287 10.3635 13.0828 10.3635ZM23.6298 7.75898C23.6242 6.93802 23.4732 6.12456 23.1837 5.35641C22.9705 4.79431 22.6406 4.28386 22.2159 3.85872C21.7911 3.43358 21.2811 3.10343 20.7195 2.89005C19.9521 2.60032 19.1393 2.44915 18.3191 2.44356C16.949 2.36914 16.5453 2.36914 13.0828 2.36914C9.62022 2.36914 9.21661 2.36914 7.84645 2.44356C7.02623 2.44915 6.2135 2.60032 5.44603 2.89005C4.88443 3.10343 4.37443 3.43358 3.94967 3.85872C3.52492 4.28386 3.19506 4.79431 2.98187 5.35641C2.6924 6.12456 2.54136 6.93802 2.53578 7.75898C2.46143 9.13036 2.46143 9.53433 2.46143 13C2.46143 16.4656 2.46143 16.8696 2.53578 18.241C2.54721 19.0648 2.69804 19.8808 2.98187 20.6542C3.19412 21.2137 3.5237 21.7212 3.94842 22.1425C4.37135 22.5702 4.88245 22.9003 5.44603 23.1099C6.2135 23.3996 7.02623 23.5508 7.84645 23.5564C9.21661 23.6308 9.62022 23.6308 13.0828 23.6308C16.5453 23.6308 16.949 23.6308 18.3191 23.5564C19.1393 23.5508 19.9521 23.3996 20.7195 23.1099C21.2831 22.9003 21.7942 22.5702 22.2172 22.1425C22.6419 21.7212 22.9715 21.2137 23.1837 20.6542C23.4729 19.8823 23.6239 19.0654 23.6298 18.241C23.7041 16.8696 23.7041 16.4656 23.7041 13C23.7041 9.53433 23.7041 9.13036 23.6298 7.75898ZM20.932 16.2637C20.8979 16.9197 20.758 17.5659 20.5177 18.1772C20.3115 18.6871 20.005 19.1504 19.6164 19.5394C19.2277 19.9284 18.7649 20.2352 18.2554 20.4416C17.6388 20.6686 16.9896 20.7943 16.3329 20.8137C15.4938 20.8137 15.2708 20.8137 13.0828 20.8137C10.8948 20.8137 10.6717 20.8137 9.83265 20.8137C9.17596 20.7943 8.52674 20.6686 7.91018 20.4416C7.38347 20.2457 6.90782 19.9331 6.51878 19.5273C6.13394 19.1459 5.83673 18.6852 5.64783 18.1772C5.42007 17.5607 5.29797 16.9102 5.28671 16.253C5.28671 15.4132 5.28671 15.1899 5.28671 13C5.28671 10.81 5.28671 10.5868 5.28671 9.74694C5.29797 9.08977 5.42007 8.43923 5.64783 7.82276C5.84356 7.29558 6.15583 6.81951 6.56127 6.43012C6.94399 6.04701 7.40382 5.74985 7.91018 5.55839C8.52674 5.33132 9.17596 5.20567 9.83265 5.18631C10.6717 5.18631 10.8948 5.18631 13.0828 5.18631C15.2708 5.18631 15.4938 5.18631 16.3329 5.18631C16.9896 5.20567 17.6388 5.33132 18.2554 5.55839C18.7821 5.7543 19.2577 6.06684 19.6468 6.47265C20.0316 6.85403 20.3288 7.31475 20.5177 7.82276C20.7446 8.43987 20.8701 9.08967 20.8895 9.74694C20.8895 10.5868 20.8895 10.81 20.8895 13C20.8895 15.1899 20.9638 15.4132 20.932 16.253V16.2637ZM19.2326 8.35431C19.1061 8.01091 18.9067 7.69907 18.6481 7.44028C18.3896 7.18149 18.078 6.98193 17.7349 6.85536C17.2639 6.69192 16.7677 6.61275 16.2692 6.62148C15.4407 6.62148 15.2071 6.62148 13.0828 6.62148C10.9585 6.62148 10.7248 6.62148 9.89638 6.62148C9.39533 6.62638 8.8991 6.71995 8.43063 6.89788C8.09279 7.01871 7.78452 7.21012 7.52631 7.4594C7.26809 7.70868 7.06585 8.01012 6.93302 8.34367C6.77877 8.81714 6.70341 9.31278 6.70997 9.81073C6.70997 10.6399 6.70997 10.8738 6.70997 13C6.70997 15.1262 6.70997 15.36 6.70997 16.1892C6.7205 16.6902 6.81381 17.1859 6.98612 17.6563C7.11259 17.9997 7.31197 18.3115 7.57053 18.5703C7.82908 18.8291 8.14065 19.0287 8.48374 19.1552C8.93691 19.3221 9.4138 19.4154 9.89638 19.4316C10.7248 19.4316 10.9585 19.4316 13.0828 19.4316C15.2071 19.4316 15.4407 19.4316 16.2692 19.4316C16.7702 19.4267 17.2665 19.3332 17.7349 19.1552C18.078 19.0287 18.3896 18.8291 18.6481 18.5703C18.9067 18.3115 19.1061 17.9997 19.2326 17.6563C19.4103 17.1874 19.5038 16.6907 19.5087 16.1892C19.5087 15.36 19.5087 15.1262 19.5087 13C19.5087 10.8738 19.5087 10.6399 19.5087 9.81073C19.509 9.30874 19.4153 8.81114 19.2326 8.34367V8.35431ZM13.0828 17.061C12.5505 17.061 12.0234 16.9558 11.5317 16.7516C11.04 16.5474 10.5935 16.2481 10.2175 15.8709C9.84163 15.4937 9.54377 15.0459 9.34103 14.5533C9.13829 14.0606 9.03465 13.5328 9.03605 13C9.03605 12.1963 9.27428 11.4108 9.72058 10.7427C10.1669 10.0747 10.8012 9.55417 11.5432 9.24712C12.2852 8.94007 13.1015 8.86027 13.8889 9.01783C14.6762 9.17538 15.3991 9.56321 15.9661 10.1322C16.5332 10.7012 16.9187 11.4258 17.0741 12.2143C17.2294 13.0027 17.1476 13.8196 16.8389 14.5614C16.5301 15.3033 16.0084 15.9368 15.3398 16.3817C14.6712 16.8267 13.8857 17.0631 13.0828 17.061ZM17.3313 9.73631C17.0965 9.71144 16.8792 9.60047 16.7213 9.4248C16.5634 9.24912 16.476 9.02117 16.476 8.78485C16.476 8.54854 16.5634 8.32058 16.7213 8.14491C16.8792 7.96923 17.0965 7.85827 17.3313 7.83339C17.5661 7.85827 17.7834 7.96923 17.9413 8.14491C18.0992 8.32058 18.1866 8.54854 18.1866 8.78485C18.1866 9.02117 18.0992 9.24912 17.9413 9.4248C17.7834 9.60047 17.5661 9.71144 17.3313 9.73631Z" fill="white"/>
</svg>
