<svg width="26" height="26" viewBox="0 0 26 26" fill="none" xmlns="http://www.w3.org/2000/svg">
<path d="M21.9919 2.36929H3.99933C3.79707 2.36648 3.59625 2.40357 3.40832 2.47845C3.22039 2.55333 3.04904 2.66453 2.90405 2.8057C2.75906 2.94687 2.64328 3.11524 2.56331 3.3012C2.48334 3.48716 2.44076 3.68707 2.43799 3.8895V22.1108C2.44076 22.3132 2.48334 22.5131 2.56331 22.6991C2.64328 22.885 2.75906 23.0534 2.90405 23.1946C3.04904 23.3357 3.22039 23.4469 3.40832 23.5218C3.59625 23.5967 3.79707 23.6338 3.99933 23.631H21.9919C22.1942 23.6338 22.395 23.5967 22.5829 23.5218C22.7708 23.4469 22.9422 23.3357 23.0872 23.1946C23.2322 23.0534 23.348 22.885 23.4279 22.6991C23.5079 22.5131 23.5505 22.3132 23.5532 22.1108V3.8895C23.5505 3.68707 23.5079 3.48716 23.4279 3.3012C23.348 3.11524 23.2322 2.94687 23.0872 2.8057C22.9422 2.66453 22.7708 2.55333 22.5829 2.47845C22.395 2.40357 22.1942 2.36648 21.9919 2.36929ZM8.84267 20.1653H5.65626V10.5976H8.84267V20.1653ZM7.24946 9.25807C6.81002 9.25807 6.38857 9.08335 6.07784 8.77234C5.7671 8.46132 5.59253 8.0395 5.59253 7.59966C5.59253 7.15983 5.7671 6.738 6.07784 6.42699C6.38857 6.11598 6.81002 5.94125 7.24946 5.94125C7.48281 5.91476 7.71911 5.93791 7.94291 6.00917C8.1667 6.08042 8.37293 6.19819 8.54809 6.35475C8.72326 6.51131 8.86341 6.70314 8.95937 6.91768C9.05532 7.13221 9.10493 7.36461 9.10493 7.59966C9.10493 7.83471 9.05532 8.06712 8.95937 8.28165C8.86341 8.49618 8.72326 8.68801 8.54809 8.84458C8.37293 9.00114 8.1667 9.1189 7.94291 9.19016C7.71911 9.26142 7.48281 9.28456 7.24946 9.25807ZM20.335 20.1653H17.1486V15.0306C17.1486 13.7443 16.6919 12.9045 15.5341 12.9045C15.1758 12.9071 14.8269 13.0196 14.5345 13.2268C14.242 13.4339 14.02 13.7259 13.8984 14.0632C13.8153 14.3131 13.7793 14.5762 13.7922 14.8393V20.1547H10.6058C10.6058 20.1547 10.6058 11.4587 10.6058 10.5869H13.7922V11.937C14.0817 11.4343 14.5027 11.0202 15.0099 10.7392C15.5171 10.4582 16.0913 10.321 16.6706 10.3424C18.7949 10.3424 20.335 11.7138 20.335 14.6585V20.1653Z" fill="white"/>
</svg>
