<svg width="112" height="42" viewBox="0 0 112 42" fill="none" xmlns="http://www.w3.org/2000/svg">
<path d="M15.918 26.3447C10.8559 23.8532 5.73453 24.6145 3.80659 25.3066L3.21338 26.8391L3.65829 28.421L5.48736 28.5693C13.476 26.5524 18.7687 32.1121 20.4165 35.144L21.2075 36.4788C22.0479 36.3964 23.8374 36.2019 24.2724 36.0833C24.7074 35.9647 25.0798 35.5395 25.2117 35.3418L24.2724 33.6116C14.2274 22.3801 21.5041 13.6731 26.3981 10.7235L26.843 10.5257V9.38874L25.2117 8.05402L22.9871 8.7461C15.4336 13.8082 15.1271 22.5877 15.918 26.3447Z" fill="#18B68C"/>
<path d="M0.0648087 23.0044C-0.322226 18.5184 1.03477 14.0558 3.85361 10.5447C6.67245 7.03353 10.7362 4.74402 15.1998 4.15223C19.6634 3.56044 24.1834 4.71193 27.8198 7.36724C31.4562 10.0226 33.9291 13.9773 34.7244 18.4092C35.5197 22.8411 34.5762 27.409 32.0899 31.163C29.6037 34.917 25.7661 37.5683 21.3753 38.5654C16.9844 39.5626 12.3781 38.8289 8.51434 36.5169C4.65054 34.205 1.83961 30.7348 0.642695 26.3942L3.99997 25.2227C4.95777 28.6962 7.21757 31.6668 10.3095 33.5169C13.4013 35.367 17.0874 35.9541 20.601 35.1561C24.1147 34.3582 27.1856 32.2366 29.1751 29.2326C31.1646 26.2285 31.9197 22.5732 31.2833 19.0267C30.6469 15.4803 28.668 12.3156 25.758 10.1907C22.8481 8.06589 19.2312 7.14444 15.6593 7.618C12.0874 8.09156 8.83554 9.92368 6.57984 12.7334C4.32415 15.5431 3.34848 18.0587 3.65819 21.6485L0.0648087 23.0044Z" fill="#18B68C"/>
<path d="M44.44 39C47.545 39 49.495 36.78 49.495 34.005C49.495 31.26 47.545 28.995 44.44 28.995H41.245V39H44.44ZM44.44 38.22H42.1V29.775H44.44C47.095 29.775 48.595 31.665 48.595 34.005C48.595 36.345 47.08 38.22 44.44 38.22ZM54.8107 39.18C56.0107 39.18 56.9257 38.76 57.6457 38.01L57.2407 37.5C56.6257 38.16 55.7857 38.505 54.8707 38.505C53.1607 38.505 52.1107 37.2 52.0357 35.625H58.0957V35.415C58.0957 33.33 56.8807 31.575 54.6757 31.575C52.6657 31.575 51.1807 33.27 51.1807 35.37C51.1807 37.605 52.6957 39.18 54.8107 39.18ZM57.3007 35.01H52.0357C52.0957 33.75 52.9507 32.25 54.6607 32.25C56.4757 32.25 57.2857 33.78 57.3007 35.01ZM65.7815 39V33.93C65.7815 32.295 64.9715 31.575 63.5015 31.575C62.4515 31.575 61.4165 32.22 60.8915 32.85V31.755H60.1115V39H60.8915V33.525C61.3565 32.865 62.3165 32.28 63.2465 32.28C64.2965 32.28 65.0015 32.7 65.0015 34.095V39H65.7815ZM69.7871 39.18C70.3871 39.18 70.7321 39 71.0171 38.73L70.7171 38.13C70.5521 38.31 70.2521 38.475 69.9071 38.475C69.3971 38.475 69.1571 38.07 69.1571 37.485V32.445H70.6271V31.755H69.1571V29.775H68.3621V31.755H67.1621V32.445H68.3621V37.605C68.3621 38.595 68.8271 39.18 69.7871 39.18ZM77.7279 39V33.9C77.7279 32.28 76.5579 31.575 75.0879 31.575C73.8879 31.575 73.0479 31.98 72.2979 32.79L72.7329 33.33C73.3929 32.58 74.0979 32.265 74.9979 32.265C76.0779 32.265 76.9479 32.85 76.9479 33.93V35.4C76.3179 34.695 75.4929 34.365 74.4879 34.365C73.2279 34.365 71.9529 35.19 71.9529 36.765C71.9529 38.325 73.2429 39.18 74.4879 39.18C75.4929 39.18 76.3029 38.85 76.9479 38.145V39H77.7279ZM74.7579 38.565C73.5579 38.565 72.7779 37.8 72.7779 36.78C72.7779 35.745 73.5579 34.98 74.7579 34.98C75.6279 34.98 76.4379 35.325 76.9479 35.985V37.575C76.4379 38.235 75.6279 38.565 74.7579 38.565ZM80.9452 39V28.995H80.1652V39H80.9452Z" fill="#414244"/>
<path d="M54.756 24L50.856 17.396C52.728 16.954 54.652 15.316 54.652 12.248C54.652 9.024 52.442 6.658 48.828 6.658H40.716V24H44.408V17.838H47.112L50.518 24H54.756ZM48.282 14.588H44.408V9.908H48.282C49.764 9.908 50.882 10.792 50.882 12.248C50.882 13.704 49.764 14.588 48.282 14.588ZM62.3819 24.312C66.5419 24.312 69.0379 21.296 69.0379 17.708C69.0379 14.146 66.5419 11.13 62.3819 11.13C58.2479 11.13 55.7519 14.146 55.7519 17.708C55.7519 21.296 58.2479 24.312 62.3819 24.312ZM62.3819 21.374C60.3279 21.374 59.1839 19.684 59.1839 17.708C59.1839 15.758 60.3279 14.068 62.3819 14.068C64.4359 14.068 65.6059 15.758 65.6059 17.708C65.6059 19.684 64.4359 21.374 62.3819 21.374ZM76.0116 24.312C79.4956 24.312 81.4456 22.57 81.4456 20.282C81.4456 15.212 74.0096 16.772 74.0096 14.9C74.0096 14.198 74.7896 13.652 75.9856 13.652C77.5196 13.652 78.9496 14.302 79.7036 15.108L81.0296 12.846C79.7816 11.858 78.0916 11.13 75.9596 11.13C72.6576 11.13 70.8116 12.976 70.8116 15.082C70.8116 20.022 78.2736 18.332 78.2736 20.412C78.2736 21.192 77.5976 21.764 76.1676 21.764C74.6076 21.764 72.7356 20.906 71.8256 20.048L70.3956 22.362C71.7216 23.584 73.8276 24.312 76.0116 24.312ZM89.7802 24.312C91.7302 24.312 93.7062 23.714 94.9542 22.57L93.4982 20.438C92.6922 21.218 91.2102 21.686 90.1442 21.686C88.0122 21.686 86.7382 20.36 86.5302 18.774H95.8642V18.046C95.8642 13.938 93.3162 11.13 89.5722 11.13C85.7502 11.13 83.0722 14.068 83.0722 17.708C83.0722 21.738 85.9582 24.312 89.7802 24.312ZM92.6662 16.538H86.4782C86.6342 15.29 87.5182 13.756 89.5722 13.756C91.7562 13.756 92.5882 15.342 92.6662 16.538ZM110.027 24V15.134C110.027 12.69 108.701 11.13 105.945 11.13C103.891 11.13 102.357 12.118 101.551 13.08V11.442H98.2493V24H101.551V15.55C102.097 14.796 103.111 14.068 104.411 14.068C105.815 14.068 106.725 14.666 106.725 16.408V24H110.027Z" fill="#414244"/>
</svg>
