<svg width="127" height="53" viewBox="0 0 127 53" fill="none" xmlns="http://www.w3.org/2000/svg">
<path d="M24.1041 33.8363C16.4388 30.0635 8.68356 31.2163 5.76413 32.2643L4.86584 34.5849L5.53956 36.9803L8.30927 37.2049C20.4062 34.1507 28.4209 42.5696 30.9161 47.1609L32.1138 49.182C33.3864 49.0573 36.0962 48.7628 36.755 48.5832C37.4137 48.4035 37.9777 47.7597 38.1773 47.4603L36.755 44.8403C21.544 27.8328 32.563 14.6479 39.9738 10.1814L40.6476 9.88202V8.1603L38.1773 6.13916L34.8087 7.18716C23.3705 14.8525 22.9064 28.1472 24.1041 33.8363Z" fill="white"/>
<path d="M0.0981381 28.7783C-0.487938 21.9853 1.56692 15.2277 5.83542 9.91087C10.1039 4.59402 16.2575 1.12706 23.0167 0.230937C29.7758 -0.665191 36.6202 1.07848 42.1267 5.09935C47.6332 9.12022 51.378 15.1089 52.5823 21.8199C53.7866 28.531 52.3578 35.448 48.5929 41.1326C44.8281 46.8173 39.017 50.832 32.368 52.3419C25.719 53.8519 18.7439 52.7409 12.893 49.24C7.04219 45.7391 2.78567 40.4843 0.973216 33.9113L6.05705 32.1374C7.50742 37.3972 10.9294 41.8956 15.6113 44.6971C20.2933 47.4986 25.875 48.3876 31.1956 47.1793C36.5162 45.971 41.1664 42.7584 44.1791 38.2094C47.1918 33.6605 48.3352 28.1253 47.3715 22.755C46.4078 17.3847 43.4111 12.5925 39.0047 9.37487C34.5983 6.15729 29.1213 4.76197 23.7125 5.47907C18.3037 6.19617 13.3794 8.9705 9.96369 13.2251C6.54795 17.4798 5.07051 21.2891 5.5395 26.725L0.0981381 28.7783Z" fill="white"/>
<path d="M64.3281 46C68.0541 46 70.3941 43.336 70.3941 40.006C70.3941 36.712 68.0541 33.994 64.3281 33.994H60.4941V46H64.3281ZM64.3281 45.064H61.5201V34.93H64.3281C67.5141 34.93 69.3141 37.198 69.3141 40.006C69.3141 42.814 67.4961 45.064 64.3281 45.064ZM76.773 46.216C78.213 46.216 79.311 45.712 80.175 44.812L79.689 44.2C78.951 44.992 77.943 45.406 76.845 45.406C74.793 45.406 73.533 43.84 73.443 41.95H80.715V41.698C80.715 39.196 79.257 37.09 76.611 37.09C74.199 37.09 72.417 39.124 72.417 41.644C72.417 44.326 74.235 46.216 76.773 46.216ZM79.761 41.212H73.443C73.515 39.7 74.541 37.9 76.593 37.9C78.771 37.9 79.743 39.736 79.761 41.212ZM89.9379 46V39.916C89.9379 37.954 88.9659 37.09 87.2019 37.09C85.9419 37.09 84.6999 37.864 84.0699 38.62V37.306H83.1339V46H84.0699V39.43C84.6279 38.638 85.7799 37.936 86.8959 37.936C88.1559 37.936 89.0019 38.44 89.0019 40.114V46H89.9379ZM94.7446 46.216C95.4646 46.216 95.8786 46 96.2206 45.676L95.8606 44.956C95.6626 45.172 95.3026 45.37 94.8886 45.37C94.2766 45.37 93.9886 44.884 93.9886 44.182V38.134H95.7526V37.306H93.9886V34.93H93.0346V37.306H91.5946V38.134H93.0346V44.326C93.0346 45.514 93.5926 46.216 94.7446 46.216ZM104.274 46V39.88C104.274 37.936 102.87 37.09 101.106 37.09C99.6656 37.09 98.6576 37.576 97.7576 38.548L98.2796 39.196C99.0716 38.296 99.9176 37.918 100.998 37.918C102.294 37.918 103.338 38.62 103.338 39.916V41.68C102.582 40.834 101.592 40.438 100.386 40.438C98.8736 40.438 97.3436 41.428 97.3436 43.318C97.3436 45.19 98.8916 46.216 100.386 46.216C101.592 46.216 102.564 45.82 103.338 44.974V46H104.274ZM100.71 45.478C99.2696 45.478 98.3336 44.56 98.3336 43.336C98.3336 42.094 99.2696 41.176 100.71 41.176C101.754 41.176 102.726 41.59 103.338 42.382V44.29C102.726 45.082 101.754 45.478 100.71 45.478ZM108.134 46V33.994H107.198V46H108.134Z" fill="white"/>
<path d="M73.5441 22L69.9441 15.904C71.6721 15.496 73.4481 13.984 73.4481 11.152C73.4481 8.176 71.4081 5.992 68.0721 5.992H60.5841V22H63.9921V16.312H66.4881L69.6321 22H73.5441ZM67.5681 13.312H63.9921V8.992H67.5681C68.9361 8.992 69.9681 9.808 69.9681 11.152C69.9681 12.496 68.9361 13.312 67.5681 13.312ZM80.5834 22.288C84.4234 22.288 86.7274 19.504 86.7274 16.192C86.7274 12.904 84.4234 10.12 80.5834 10.12C76.7674 10.12 74.4634 12.904 74.4634 16.192C74.4634 19.504 76.7674 22.288 80.5834 22.288ZM80.5834 19.576C78.6874 19.576 77.6314 18.016 77.6314 16.192C77.6314 14.392 78.6874 12.832 80.5834 12.832C82.4794 12.832 83.5594 14.392 83.5594 16.192C83.5594 18.016 82.4794 19.576 80.5834 19.576ZM93.1647 22.288C96.3807 22.288 98.1807 20.68 98.1807 18.568C98.1807 13.888 91.3167 15.328 91.3167 13.6C91.3167 12.952 92.0367 12.448 93.1407 12.448C94.5567 12.448 95.8767 13.048 96.5727 13.792L97.7967 11.704C96.6447 10.792 95.0847 10.12 93.1167 10.12C90.0687 10.12 88.3647 11.824 88.3647 13.768C88.3647 18.328 95.2527 16.768 95.2527 18.688C95.2527 19.408 94.6287 19.936 93.3087 19.936C91.8687 19.936 90.1407 19.144 89.3007 18.352L87.9807 20.488C89.2047 21.616 91.1487 22.288 93.1647 22.288ZM105.874 22.288C107.674 22.288 109.498 21.736 110.65 20.68L109.306 18.712C108.562 19.432 107.194 19.864 106.21 19.864C104.242 19.864 103.066 18.64 102.874 17.176H111.49V16.504C111.49 12.712 109.138 10.12 105.682 10.12C102.154 10.12 99.6822 12.832 99.6822 16.192C99.6822 19.912 102.346 22.288 105.874 22.288ZM108.538 15.112H102.826C102.97 13.96 103.786 12.544 105.682 12.544C107.698 12.544 108.466 14.008 108.538 15.112ZM124.564 22V13.816C124.564 11.56 123.34 10.12 120.796 10.12C118.9 10.12 117.484 11.032 116.74 11.92V10.408H113.692V22H116.74V14.2C117.244 13.504 118.18 12.832 119.38 12.832C120.676 12.832 121.516 13.384 121.516 14.992V22H124.564Z" fill="white"/>
</svg>
