<svg width="24" height="24" viewBox="0 0 24 24" fill="none" xmlns="http://www.w3.org/2000/svg">
<path d="M12.7645 14.83L16.984 10.59C17.0772 10.497 17.1513 10.3864 17.2018 10.2646C17.2523 10.1427 17.2783 10.012 17.2783 9.88C17.2783 9.74799 17.2523 9.61729 17.2018 9.49543C17.1513 9.37357 17.0772 9.26297 16.984 9.17C16.7975 8.98375 16.5453 8.87921 16.2824 8.87921C16.0195 8.87921 15.7672 8.98375 15.5808 9.17L12.0579 12.71L8.53501 9.17C8.34856 8.98375 8.09633 8.87921 7.83342 8.87921C7.57051 8.87921 7.31829 8.98375 7.13183 9.17C7.0396 9.26344 6.96663 9.37426 6.9171 9.4961C6.86758 9.61794 6.84248 9.7484 6.84323 9.88C6.84248 10.0116 6.86758 10.1421 6.9171 10.2639C6.96663 10.3857 7.0396 10.4966 7.13183 10.59L11.3513 14.83C11.4438 14.9237 11.5539 14.9981 11.6752 15.0489C11.7964 15.0997 11.9265 15.1258 12.0579 15.1258C12.1893 15.1258 12.3193 15.0997 12.4406 15.0489C12.5619 14.9981 12.6719 14.9237 12.7645 14.83Z" fill="#4B4B4B"/>
</svg>
