<svg width="24" height="24" viewBox="0 0 24 24" fill="none" xmlns="http://www.w3.org/2000/svg">
<path d="M21.4103 20.29L17.7515 16.61C19.1718 14.8144 19.8595 12.5353 19.6735 10.2413C19.4874 7.94733 18.4415 5.81281 16.751 4.27667C15.0605 2.74053 12.8539 1.91954 10.5847 1.9825C8.31557 2.04546 6.15646 2.98759 4.55133 4.61517C2.94621 6.24275 2.01708 8.43207 1.95498 10.7329C1.89289 13.0338 2.70256 15.2714 4.21751 16.9855C5.73245 18.6997 7.83752 19.7601 10.0999 19.9488C12.3622 20.1375 14.6099 19.4401 16.3807 18L20.0099 21.68C20.1016 21.7738 20.2107 21.8481 20.3309 21.8989C20.451 21.9497 20.5799 21.9758 20.7101 21.9758C20.8403 21.9758 20.9692 21.9497 21.0894 21.8989C21.2096 21.8481 21.3187 21.7738 21.4103 21.68C21.5881 21.4936 21.6875 21.2444 21.6875 20.985C21.6875 20.7257 21.5881 20.4765 21.4103 20.29V20.29ZM10.8481 18C9.48273 18 8.14803 17.5895 7.01277 16.8203C5.8775 16.0511 4.99267 14.9579 4.47017 13.6788C3.94767 12.3997 3.81096 10.9923 4.07733 9.63439C4.3437 8.27653 5.00118 7.02925 5.96665 6.05028C6.93211 5.07131 8.16218 4.40463 9.50131 4.13453C10.8404 3.86443 12.2285 4.00306 13.4899 4.53287C14.7514 5.06268 15.8295 5.95989 16.5881 7.11103C17.3466 8.26218 17.7515 9.61556 17.7515 11C17.7515 12.8565 17.0242 14.637 15.7296 15.9498C14.4349 17.2625 12.679 18 10.8481 18V18Z" fill="#4B4B4B"/>
</svg>
