<svg width="26" height="26" viewBox="0 0 26 26" fill="none" xmlns="http://www.w3.org/2000/svg">
<path d="M23.2762 15.2915C23.4273 14.5835 23.5027 13.8613 23.5009 13.1373C23.4934 11.8135 23.2253 10.5041 22.7118 9.28399C22.1984 8.06391 21.4497 6.95708 20.5087 6.02678C19.5676 5.09648 18.4525 4.36095 17.2272 3.86225C16.002 3.36356 14.6905 3.11146 13.3678 3.12039C12.7892 3.1189 12.2116 3.16935 11.6419 3.27112C10.7575 2.71495 9.74112 2.4046 8.69718 2.372C7.65324 2.33941 6.61946 2.58573 5.70218 3.08565C4.78489 3.58556 4.01721 4.32102 3.4781 5.21637C2.93898 6.11173 2.64789 7.13466 2.63477 8.17996C2.63543 9.21052 2.91179 10.2221 3.43513 11.1096C3.30528 11.7696 3.23819 12.4404 3.23474 13.113C3.24583 14.4277 3.51771 15.7271 4.0346 16.9358C4.5515 18.1445 5.3031 19.2384 6.2458 20.154C7.18849 21.0696 8.3035 21.7887 9.5261 22.2695C10.7487 22.7504 12.0545 22.9833 13.3678 22.9549C13.9892 22.9596 14.6094 22.9005 15.2188 22.7786C16.0597 23.289 17.0143 23.5818 17.9965 23.6308C18.9875 23.6496 19.9666 23.4126 20.8395 22.9426C21.7123 22.4727 22.4495 21.7856 22.9801 20.9476C23.5106 20.1097 23.8165 19.1491 23.8684 18.1584C23.9203 17.1677 23.7163 16.1804 23.2762 15.2915ZM17.971 17.245C17.5314 17.8347 16.9326 18.2865 16.2451 18.547C15.3944 18.8859 14.4835 19.0477 13.5682 19.0223C12.5049 19.0568 11.4491 18.8337 10.4905 18.3719C9.92983 18.073 9.44912 17.6436 9.08888 17.1198C8.76909 16.6821 8.58646 16.1591 8.56418 15.6173C8.56166 15.4796 8.58953 15.3431 8.6458 15.2174C8.70206 15.0917 8.78534 14.98 8.88968 14.8903C9.11456 14.6858 9.41075 14.5779 9.71436 14.59C9.95995 14.5799 10.2007 14.6603 10.3909 14.8161C10.5996 15.011 10.7619 15.2502 10.8658 15.5163C10.9943 15.8499 11.1715 16.1625 11.3917 16.4439C11.5932 16.7084 11.8603 16.9155 12.1666 17.0444C12.5859 17.2213 13.0381 17.3066 13.4929 17.2948C14.1364 17.3301 14.7748 17.164 15.3197 16.8195C15.53 16.6965 15.705 16.5212 15.8278 16.3105C15.9506 16.0999 16.0169 15.8611 16.0204 15.6173C16.0276 15.445 15.9979 15.2732 15.9331 15.1134C15.8684 14.9536 15.7702 14.8096 15.6452 14.691C15.3696 14.4298 15.0343 14.2403 14.6686 14.139C14.269 14.0138 13.7176 13.8886 13.0423 13.7391C12.2668 13.5749 11.5057 13.3489 10.7662 13.0632C10.1978 12.8352 9.6979 12.4642 9.3148 11.9862C8.95244 11.5039 8.76676 10.9116 8.78892 10.3085C8.7882 9.69286 8.99059 9.09417 9.36465 8.60542C9.78849 8.07673 10.3519 7.6775 10.9909 7.45303C11.8021 7.16685 12.6586 7.03131 13.5184 7.05307C14.1956 7.04439 14.8702 7.13699 15.52 7.3278C16.0256 7.47438 16.5001 7.71208 16.9204 8.02922C17.2553 8.27907 17.5362 8.59416 17.7463 8.95552C17.9069 9.23808 17.993 9.55686 17.9965 9.88188C17.9969 10.0228 17.9682 10.1623 17.9122 10.2915C17.8562 10.4208 17.7741 10.5371 17.671 10.6331C17.5682 10.741 17.4437 10.8258 17.3057 10.882C17.1678 10.9382 17.0194 10.9644 16.8706 10.9589C16.629 10.9732 16.39 10.9023 16.1953 10.7584C15.9943 10.5703 15.8253 10.3506 15.6949 10.108C15.4958 9.71065 15.2143 9.36042 14.869 9.08074C14.4062 8.79093 13.862 8.65914 13.318 8.70513C12.7563 8.67892 12.1992 8.81842 11.716 9.10631C11.5425 9.19972 11.396 9.33646 11.2909 9.50325C11.1858 9.67004 11.1255 9.86121 11.116 10.0582C11.1174 10.2746 11.1876 10.4849 11.3164 10.6587C11.4714 10.8447 11.6689 10.9907 11.8921 11.0841C12.1202 11.2087 12.3641 11.3015 12.6172 11.3601C12.8674 11.4355 13.2683 11.5352 13.8427 11.6604C14.5435 11.8111 15.1945 11.9862 15.7702 12.1612C16.2915 12.3157 16.7883 12.5433 17.2459 12.8371C17.6356 13.0934 17.961 13.4362 18.1969 13.8388C18.438 14.2935 18.5584 14.8024 18.5467 15.317C18.5764 16.0061 18.3737 16.6852 17.971 17.245Z" fill="white"/>
</svg>
