<svg width="26" height="26" viewBox="0 0 26 26" fill="none" xmlns="http://www.w3.org/2000/svg">
<path d="M23.7901 6.4091C22.9917 6.75577 22.1474 6.98494 21.2834 7.08948C22.1949 6.54445 22.878 5.68704 23.2059 4.67627C22.3493 5.18662 21.4117 5.54619 20.4337 5.73936C19.78 5.02983 18.9095 4.55752 17.9588 4.39653C17.008 4.23553 16.0307 4.39494 15.1802 4.84976C14.3297 5.30458 13.654 6.02908 13.2593 6.90964C12.8645 7.7902 12.7729 8.777 12.9988 9.71529C11.2669 9.62762 9.5728 9.17626 8.02656 8.39054C6.48031 7.60483 5.11651 6.50233 4.02373 5.15466C3.64045 5.82458 3.43905 6.58326 3.43956 7.35525C3.4382 8.07217 3.61398 8.77831 3.95125 9.41079C4.28852 10.0433 4.77681 10.5825 5.37264 10.9804C4.68011 10.9615 4.00237 10.7755 3.39707 10.4382V10.4913C3.40226 11.4958 3.75394 12.4677 4.39263 13.2426C5.03131 14.0174 5.91779 14.5477 6.90212 14.7437C6.52321 14.8591 6.12981 14.9199 5.73377 14.9244C5.45962 14.9212 5.18616 14.8963 4.91593 14.85C5.19623 15.7141 5.73868 16.4692 6.46779 17.0103C7.19689 17.5515 8.07639 17.8517 8.98391 17.8691C7.45146 19.076 5.55946 19.7347 3.6095 19.7402C3.25446 19.7413 2.89971 19.72 2.54736 19.6764C4.53826 20.963 6.85837 21.646 9.2282 21.6431C10.8636 21.6601 12.4859 21.3508 14.0005 20.7332C15.5151 20.1156 16.8915 19.2021 18.0495 18.0461C19.2074 16.8902 20.1235 15.5148 20.7445 14.0005C21.3654 12.4861 21.6786 10.8631 21.6658 9.22627C21.6658 9.04555 21.6658 8.85419 21.6658 8.66284C22.4993 8.04073 23.2181 7.27809 23.7901 6.4091Z" fill="white"/>
</svg>
